<svg>
<symbol id="arrow" viewBox="0 0 7 10" fill="none" xmlns="http://www.w3.org/2000/svg">
<path d="M1 1L5.95 5L1 9"  />
</symbol>

<symbol id="arrowProduct" viewBox="0 0 41 16" xmlns="http://www.w3.org/2000/svg">
<path d="M40.7071 8.70711C41.0976 8.31658 41.0976 7.68342 40.7071 7.29289L34.3431 0.928932C33.9526 0.538408 33.3195 0.538408 32.9289 0.928932C32.5384 1.31946 32.5384 1.95262 32.9289 2.34315L38.5858 8L32.9289 13.6569C32.5384 14.0474 32.5384 14.6805 32.9289 15.0711C33.3195 15.4616 33.9526 15.4616 34.3431 15.0711L40.7071 8.70711ZM0 9H40V7H0V9Z" />
</symbol>

<symbol id="github" viewBox="0 0 20 20" xmlns="http://www.w3.org/2000/svg">
<path d="M9.99965 0.529053C4.83019 0.529053 0.587891 4.77238 0.587891 9.94309C0.587891 14.3555 3.68331 18.3637 7.79377 19.3571V16.2426C7.38649 16.3318 7.01166 16.3344 6.59705 16.2121C6.04084 16.0479 5.5889 15.6773 5.25342 15.1122C5.03958 14.7514 4.66059 14.3601 4.26522 14.3888L4.16828 13.2899C5.02321 13.2167 5.76281 13.8109 6.20183 14.5487C6.39686 14.8768 6.62132 15.0691 6.90941 15.1542C7.18787 15.2362 7.48687 15.1968 7.83528 15.0737C7.92274 14.376 8.24227 14.1149 8.48369 13.7471V13.7466C6.03223 13.3808 5.05523 12.08 4.66748 11.0532C4.15364 9.68984 4.42937 7.98662 5.33801 6.91028C5.35567 6.8893 5.38755 6.83443 5.3752 6.79608C4.95858 5.5373 5.46625 4.496 5.48492 4.38554C5.96573 4.52775 6.04386 4.24247 7.57347 5.17201L7.83786 5.33088C7.94844 5.39681 7.91369 5.35918 8.02427 5.35085C8.66291 5.17732 9.33617 5.08151 9.99951 5.07289C10.6679 5.08151 11.3368 5.17732 12.0019 5.35788L12.0875 5.3665C12.08 5.36535 12.1108 5.36104 12.1623 5.3303C14.0731 4.17265 14.0044 4.55102 14.5168 4.38439C14.5354 4.495 15.0363 5.55324 14.6241 6.79608C14.5685 6.9673 16.2807 8.5355 15.3317 11.0528C14.9439 12.08 13.9671 13.3808 11.5156 13.7466V13.7471C11.8298 14.2262 12.2074 14.481 12.2054 15.4693V19.3571C16.316 18.3637 19.4113 14.3555 19.4113 9.94309C19.4114 4.77238 15.1691 0.529053 9.99965 0.529053V0.529053Z" />
</symbol>

<symbol id="telegram" viewBox="0 0 20 16" xmlns="http://www.w3.org/2000/svg">
<path d="M8.10228 10.3191L7.78467 14.4894C8.23909 14.4894 8.43589 14.3072 8.6719 14.0884L10.8023 12.1877L15.2169 15.2056C16.0265 15.6269 16.5969 15.4051 16.8153 14.5103L19.713 1.83491L19.7138 1.83417C19.9706 0.716889 19.2809 0.279986 18.4921 0.554078L1.45972 6.6416C0.297295 7.06282 0.314896 7.66776 1.26212 7.94185L5.61662 9.20626L15.7313 3.29798C16.2073 3.00372 16.6401 3.16654 16.2841 3.46079L8.10228 10.3191Z" />
</symbol>

<symbol id="facebook" viewBox="0 0 9 20" xmlns="http://www.w3.org/2000/svg">
<path d="M8.44563 9.92464H5.83546V19.5455H1.88083V9.92464H0V6.54351H1.88083V4.35553C1.88083 2.79089 2.61956 0.34082 5.87066 0.34082L8.8 0.35315V3.63512H6.67458C6.32594 3.63512 5.83572 3.81037 5.83572 4.55675V6.54665H8.79113L8.44563 9.92464Z" />
</symbol>

<symbol id="play" viewBox="0 0 36 36"  xmlns="http://www.w3.org/2000/svg">
<g clip-path="url(#clip0_1175_350)">
<path d="M32.1601 16.0801L8.94007 4.47011C8.62682 4.32498 8.28224 4.2605 7.93771 4.28254C7.59318 4.30459 7.25963 4.41245 6.96743 4.59632C6.67523 4.78019 6.43365 5.03422 6.2647 5.33529C6.09574 5.63636 6.00477 5.97491 6.00007 6.32011V29.5301C5.99714 29.8845 6.08568 30.2336 6.25712 30.5437C6.42856 30.8539 6.6771 31.1145 6.97873 31.3005C7.28036 31.4865 7.62487 31.5916 7.97896 31.6055C8.33305 31.6195 8.68475 31.5418 9.00007 31.3801L32.1601 19.7701C32.5031 19.5979 32.7916 19.3337 32.9931 19.007C33.1947 18.6803 33.3014 18.304 33.3014 17.9201C33.3014 17.5362 33.1947 17.1599 32.9931 16.8332C32.7916 16.5065 32.5031 16.2423 32.1601 16.0701V16.0801Z" fill="#FCFCFC"/>
</g>
<defs>
<clipPath id="clip0_1175_350">
<rect width="36" height="36" />
</clipPath>
</defs>
</symbol>

<symbol id="close" viewBox="0 0 12 12" xmlns="http://www.w3.org/2000/svg">
<path d="M6.7831 5.99997L11.3887 1.39441C11.4797 1.28813 11.5272 1.15142 11.5218 1.0116C11.5164 0.871784 11.4585 0.739152 11.3595 0.64021C11.2606 0.541269 11.128 0.483306 10.9881 0.477905C10.8483 0.472505 10.7116 0.520064 10.6053 0.611079L5.99977 5.21663L1.39421 0.605523C1.2896 0.50091 1.14771 0.442139 0.999768 0.442139C0.851823 0.442139 0.709937 0.50091 0.605324 0.605523C0.50071 0.710136 0.441939 0.852022 0.441939 0.999967C0.441939 1.14791 0.50071 1.2898 0.605324 1.39441L5.21643 5.99997L0.605324 10.6055C0.547167 10.6553 0.499934 10.7166 0.466587 10.7855C0.433241 10.8545 0.414502 10.9295 0.411547 11.006C0.408592 11.0826 0.421483 11.1589 0.449414 11.2301C0.477344 11.3014 0.51971 11.3662 0.573851 11.4203C0.627993 11.4745 0.692741 11.5168 0.764033 11.5448C0.835325 11.5727 0.91162 11.5856 0.988131 11.5826C1.06464 11.5797 1.13972 11.5609 1.20864 11.5276C1.27757 11.4942 1.33885 11.447 1.38866 11.3889L5.99977 6.7833L10.6053 11.3889C10.7116 11.4799 10.8483 11.5274 10.9881 11.522C11.128 11.5166 11.2606 11.4587 11.3595 11.3597C11.4585 11.2608 11.5164 11.1282 11.5218 10.9883C11.5272 10.8485 11.4797 10.7118 11.3887 10.6055L6.7831 5.99997Z" />
</symbol>

</svg>
